<svg version="1.1" id="Capa_1" xmlns="http://www.w3.org/2000/svg" xmlns:xlink="http://www.w3.org/1999/xlink" x="0px" y="0px"
	viewBox="0 0 512 512" style="enable-background:new 0 0 512 512;" xml:space="preserve">
        <style type="text/css">	
		.st0{fill:#FFD93B;}
		.st1{fill:#F4C534;}
		.st2{fill:#3E4347;}
		.st3{fill:#FFFFFF;}
	</style>
	<circle class="st0" cx="256" cy="256" r="256"/>
	<path class="st1" d="M512,256c0,141.4-114.6,256-256,256c-80.5,0-152.3-37.1-199.3-95.3c43.9,35.5,99.8,56.7,160.7,56.7
		c141.4,0,256-114.6,256-256c0-60.9-21.2-116.8-56.7-160.7C474.8,103.7,512,175.5,512,256z"/>
	<g>
		<path class="st2" d="M155.2,72.9c0,0-52-7.3-106.6,55.9C48.5,128.8,83.8,15.6,155.2,72.9z"/>
		<path class="st2" d="M356.8,72.9c0,0,52-7.3,106.6,55.9C463.5,128.8,428.2,15.6,356.8,72.9z"/>
	</g>
	<circle class="st1" cx="151.3" cy="212.8" r="94.2"/>
	<circle class="st3" cx="151.3" cy="212.8" r="77.1"/>
	<path class="st2" d="M101.8,187.5c0,21.5,17.5,38.7,38.9,38.7s38.9-17.3,38.9-38.7c0-21.5-17.5-38.9-38.9-38.9
		S101.8,166,101.8,187.5z"/>
	<ellipse transform="matrix(0.7071 -0.7071 0.7071 0.7071 -85.1995 139.6368)" class="st3" cx="126" cy="172.7" rx="12.4" ry="7.5"/>
	<circle class="st1" cx="360.7" cy="212.7" r="94.2"/>
	<circle class="st3" cx="360.7" cy="212.7" r="77.1"/>
	<path class="st2" d="M400.1,238c0-21.5-17.5-38.7-38.9-38.7c-21.5,0-38.9,17.3-38.9,38.7s17.5,38.9,38.9,38.9S400.1,259.5,400.1,238z"/>
	<ellipse transform="matrix(0.7071 -0.7071 0.7071 0.7071 -68.6952 339.8915)" class="st3" cx="375.9" cy="252.9" rx="12.4" ry="7.5"/>
	<path class="st2" d="M111.9,403.5c9.2-18.3,35.4-38.5,50.3-23.7c7.5,6.4,11.6,15.7,17.8,17.7c6.4,2.1,11.2-2,16.9-11.4
		c12.9-17.8,27.6-17.9,39.4-8.5c5.5,5,8.2,10,11.3,13.7c10.8,14.5,15.9-2.1,27.9-13.8c11.3-9.6,26.3-9.1,39.3,8.6
		c5.9,9.5,10.2,13.4,16.9,11.3c6.2-2.1,10.4-11.4,17.9-17.7c16.5-14.4,41.1,5.4,50.4,23.7c-10.4-11.9-33.4-29.7-44.1-18
		c-5.5,4.6-6.8,14.4-19.2,21.4c-5.7,2.8-13.8,3-21.3-1.1c-6.2-3.8-9.3-8.9-12.4-12.8c-7.2-10-11.9-9.1-16.8-5.6
		c-7.5,6.7-7,12.8-17.4,19.5c-8.4,6.2-24,5.6-34-7.4c-3.8-4.9-6.5-9.6-9.4-12.1c-1.2-1.2-3.1-1.9-3.2-2.1c-4.3-0.7-7.2-1.1-13.6,7.5
		c-9.3,11.8-17.8,20.7-33.6,14c-12.5-7-13.7-16.8-19.2-21.4C145.5,373.7,122.2,391.6,111.9,403.5z"/>
</svg>